<svg width="13" height="12" viewBox="0 0 13 12" fill="none" xmlns="http://www.w3.org/2000/svg">
<path d="M12.0536 5.25H7.23214V0.75C7.23214 0.551088 7.14748 0.360322 6.99678 0.21967C6.84608 0.0790178 6.64169 0 6.42857 0C6.21545 0 6.01106 0.0790178 5.86036 0.21967C5.70966 0.360322 5.625 0.551088 5.625 0.75V5.25H0.803571C0.590451 5.25 0.38606 5.32902 0.235361 5.46967C0.0846619 5.61032 0 5.80109 0 6C0 6.19891 0.0846619 6.38968 0.235361 6.53033C0.38606 6.67098 0.590451 6.75 0.803571 6.75H5.625V11.25C5.625 11.4489 5.70966 11.6397 5.86036 11.7803C6.01106 11.921 6.21545 12 6.42857 12C6.64169 12 6.84608 11.921 6.99678 11.7803C7.14748 11.6397 7.23214 11.4489 7.23214 11.25V6.75H12.0536C12.2667 6.75 12.4711 6.67098 12.6218 6.53033C12.7725 6.38968 12.8571 6.19891 12.8571 6C12.8571 5.80109 12.7725 5.61032 12.6218 5.46967C12.4711 5.32902 12.2667 5.25 12.0536 5.25Z" fill="#FE5F00"/>
</svg>
