<svg width="9" height="11" viewBox="0 0 9 11" fill="none" xmlns="http://www.w3.org/2000/svg">
<path d="M2.226 10.098C2.002 10.098 1.82467 10.0327 1.694 9.902C1.56333 9.77133 1.498 9.58467 1.498 9.342V7.984H0.7C0.522667 7.984 0.382667 7.942 0.28 7.858C0.186667 7.76467 0.14 7.63867 0.14 7.48C0.14 7.312 0.186667 7.186 0.28 7.102C0.382667 7.00867 0.522667 6.962 0.7 6.962H1.498V5.828H0.7C0.522667 5.828 0.382667 5.786 0.28 5.702C0.186667 5.60867 0.14 5.478 0.14 5.31C0.14 5.15133 0.186667 5.03 0.28 4.946C0.382667 4.85267 0.522667 4.806 0.7 4.806H1.498V0.857999C1.498 0.624666 1.55867 0.447333 1.68 0.325999C1.81067 0.195333 1.99267 0.129999 2.226 0.129999H4.774C5.48333 0.129999 6.08533 0.251333 6.58 0.494C7.07467 0.727333 7.448 1.05867 7.7 1.488C7.952 1.91733 8.078 2.43067 8.078 3.028C8.078 3.59733 7.94733 4.092 7.686 4.512C7.42467 4.92267 7.056 5.24467 6.58 5.478C6.104 5.71133 5.53467 5.828 4.872 5.828H2.968V6.962H4.872C5.04933 6.962 5.18467 7.00867 5.278 7.102C5.38067 7.186 5.432 7.312 5.432 7.48C5.432 7.63867 5.38067 7.76467 5.278 7.858C5.18467 7.942 5.04933 7.984 4.872 7.984H2.968V9.342C2.968 9.58467 2.90267 9.77133 2.772 9.902C2.65067 10.0327 2.46867 10.098 2.226 10.098ZM2.94 4.806H4.634C5.29667 4.806 5.80067 4.67067 6.146 4.4C6.50067 4.12 6.678 3.69067 6.678 3.112C6.678 2.524 6.50533 2.08533 6.16 1.796C5.81467 1.50667 5.30133 1.362 4.62 1.362H2.94V4.806Z" fill="#BBBBBB"/>
</svg>
